<svg xmlns="http://www.w3.org/2000/svg" viewBox="0 0 277 280.8"><defs><style>.cls-1{fill:#362656;}.cls-2{fill:#563d7c;}.cls-3{fill:#fefefe;}</style></defs><g id="Layer_2" data-name="Layer 2"><g id="Layer_1-2" data-name="Layer 1"><rect class="cls-1" x="37.7" width="239.3" height="244" rx="24"/><path class="cls-2" d="M0,158.67q0-40.29,0-80.59c.05-25.27,15.9-41.39,40.76-41.41q78.89-.06,157.78,0c24,0,40.43,16.86,40.45,41.48q.06,80.29,0,160.6c0,24.88-16.9,42-41.35,42q-78.34,0-156.69,0C16.44,280.76.06,264.14,0,239.25Q0,199,0,158.67Z"/><path class="cls-3" d="M152.14,155.55c12.77,2.7,20.85,9.89,24.56,21.45,6.44,20.08.92,42.43-22.94,50.8a76.4,76.4,0,0,1-25.38,4.47c-20.85,0-41.71-.08-62.56.1-3.95,0-5-1.1-5-5q.2-66.46,0-132.94c0-3.75.69-5.14,4.83-5.1,22.54.21,45.09,0,67.63.16,10.93.08,21.19,2.62,29.54,10.36,16.06,14.89,12.59,43-6.59,53.34C155.08,153.77,154,154.46,152.14,155.55Z"/><path class="cls-2" d="M110.82,211.77c-6.94,0-13.88-.12-20.81,0-3.06.08-4.27-.71-4.21-4,.18-12.18.15-24.37,0-36.55,0-3,.52-4.29,3.92-4.25,14.25.2,28.51-.13,42.75.22,13,.31,21,8.36,21.37,20.52.41,14.11-6.38,22.15-20,23.53-3.17.32-6.36.43-9.54.49C119.82,211.83,115.32,211.77,110.82,211.77Z"/><path class="cls-2" d="M109.65,109.69c6.37,0,12.75-.15,19.12,0,11.66.35,17.88,6.15,18.86,17.28,1,11.3-4.87,19.77-16,21.26-14.33,1.92-28.83.4-43.25.76-2.59.07-2.46-1.64-2.46-3.37,0-10.87.09-21.74-.06-32.61,0-2.79,1-3.47,3.58-3.41C96.14,109.79,102.9,109.69,109.65,109.69Z"/></g></g></svg>