<svg xmlns="http://www.w3.org/2000/svg" viewBox="0 0 164.18 163.6"><defs><style>.cls-1{fill:#0e74b8;}.cls-2{fill:#1b8dcd;}.cls-3{fill:#fff;}</style></defs><g id="Layer_2" data-name="Layer 2"><g id="Layer_1-2" data-name="Layer 1"><rect class="cls-1" x="22.59" width="141.6" height="141.6" rx="14.6"/><rect class="cls-2" y="22" width="141.6" height="141.6" rx="14.6"/><path class="cls-1" d="M69.92,41.33c14.79,0,29.58,0,44.36,0,1.33,0,1.65.35,1.53,1.63q-4.07,45-8,90a2.8,2.8,0,0,1-2.49,2.93c-11.37,3-22.69,6.25-34,9.35a5.3,5.3,0,0,1-2.68.06q-17.48-4.77-34.9-9.73a2.7,2.7,0,0,1-1.54-1.91Q29.45,105,26.94,76.36C26,65.24,25,54.13,24,43c-.13-1.39.21-1.73,1.6-1.72C40.35,41.35,55.14,41.33,69.92,41.33Z"/><path class="cls-3" d="M69.78,125c-7.36-2.07-14.72-4.11-22.05-6.27A2.59,2.59,0,0,1,46.18,117c-.57-5.1-1-10.22-1.38-15.35A1.81,1.81,0,0,1,46,100.35c3-.12,6-.14,9,0a2.12,2.12,0,0,1,1.43,1.42c.35,2.17.4,4.4.7,6.58a1.93,1.93,0,0,0,1,1.32c3.75,1.07,7.54,2,11.31,3a.88.88,0,0,1,.67.54A76.56,76.56,0,0,1,70.23,124a1.27,1.27,0,0,1-.47.94Z"/><path class="cls-3" d="M41.08,59.83l28.71,0a2,2,0,0,1,.52,1.56c0,2.77,0,5.53,0,8.3a2.18,2.18,0,0,1-.48,1.58,3.71,3.71,0,0,1-1.37.09q-12.48,0-25,0c-.49,0-1,.2-1.47-.21Q41.56,65.51,41.08,59.83Z"/><path class="cls-3" d="M69.78,94.42H57.14c-.29-3.16-.52-6.32-.9-9.47-.17-1.43,0-2.07,1.71-2,3.94.14,7.89,0,11.84,0l0,.12a1.93,1.93,0,0,1,.54,1.54q.06,4.14,0,8.28A1.89,1.89,0,0,1,69.78,94.42Z"/><path class="cls-3" d="M69.78,94.42c0-3.79,0-7.57,0-11.36,4.64,0,9.27,0,13.91-.14a2.22,2.22,0,0,0,1.48-1.51c.4-2.9.64-5.83.79-8.75a1.8,1.8,0,0,0-1.18-1.32c-5-.12-10-.11-15-.14V59.86c9.32,0,18.64-.06,28,0,.29,0,.86.79.82,1.17q-2.43,28.19-5,56.35a1.72,1.72,0,0,1-.92,1.25c-7.62,2.14-15.25,4.21-22.88,6.3q0-6,0-11.92c3.87-1.06,7.74-2.06,11.57-3.22a2.45,2.45,0,0,0,1.39-1.68c.49-4,.79-8,1.23-12,.14-1.29-.22-1.67-1.55-1.66C78.21,94.53,74,94.45,69.78,94.42Z"/></g></g></svg>