<svg xmlns="http://www.w3.org/2000/svg" viewBox="0 0 164.18 163.6"><defs><style>.cls-1{fill:#ef5129;}.cls-2{fill:#f16351;}.cls-3{fill:#fff;}.cls-4{fill:#f1692d;}.cls-5{fill:#e45226;}</style></defs><g id="Layer_2" data-name="Layer 2"><g id="Layer_1-2" data-name="Layer 1"><rect class="cls-1" x="22.59" width="141.6" height="141.6" rx="14.6"/><rect class="cls-2" y="22" width="141.6" height="141.6" rx="14.6"/><path class="cls-1" d="M65.87,45.39q22.59,0,45.19,0c1.3,0,1.69.25,1.56,1.63q-2.87,31.29-5.62,62.6c-.89,9.92-1.73,19.83-2.7,29.74a2.88,2.88,0,0,1-1.6,2q-17.82,5.09-35.69,10a4.59,4.59,0,0,1-2.27,0q-18-4.94-35.85-10a2.47,2.47,0,0,1-1.47-1.67q-2.09-22.07-4-44.14c-1.43-16-2.83-32-4.33-48-.16-1.69.07-2.19,1.91-2.18C36,45.42,50.91,45.39,65.87,45.39Z"/><path class="cls-3" d="M50.51,88.47l9.62.26c1.83,0,3.66,0,5.49.07a1.91,1.91,0,0,1,.53,1.43c.06,3,.07,6,0,8.94a1.84,1.84,0,0,1-.46,1.3,10.3,10.3,0,0,1-2.66.1q-10.92,0-21.86,0c-.55,0-1.15.2-1.66-.2-1-11.33-2-22.65-3-34-.13-1.37.24-1.54,1.44-1.53,9.24,0,18.48,0,27.72,0s18.64,0,28,.06a8.58,8.58,0,0,1,1.58.28c-.72.71-1.66.54-2.53.55H69.83c-.53,0-1,0-1.57,0-1.93,0-2.05.16-2.07,2.07s0,4,0,6,.1,2.14,2.12,2.15c5.14,0,10.28,0,15.41,0,3.51,0,7,0,10.52-.06-.49.3-1,.86-1.47.87-9.05.07-18.09.07-27.14.09a3.13,3.13,0,0,1-2.24.51c-3.83,0-7.65,0-11.48,0-1.75,0-1.9.15-1.8,1.91.15,2.4.5,4.79.61,7.19A3.63,3.63,0,0,1,50.51,88.47Z"/><path class="cls-3" d="M65.62,131.25l-.32.08c-7.3-2-14.61-4-21.87-6.16a3.06,3.06,0,0,1-1.77-2.07C41,118,40.59,112.81,40.2,107.65a1.86,1.86,0,0,1,1.18-1.38c3.09-.12,6.19-.13,9.27,0A2,2,0,0,1,52,107.64c.34,2.32.43,4.68.72,7a1.61,1.61,0,0,0,.93,1.14c4,1.11,8,2.13,12,3.17.3-.15.56-.16.72.2-.32,3.23-.12,6.47-.18,9.71A3.24,3.24,0,0,1,65.62,131.25Z"/><path class="cls-4" d="M66.24,119l-.62-.08c0-5.55,0-11.1-.07-16.65A2.16,2.16,0,0,0,64,100.82c-7.6-.1-15.2-.06-22.8-.09a9,9,0,0,1-1.74-.36l26.12,0a2.46,2.46,0,0,1,1.77-.5c3.66,0,7.33-.05,11,0,1.77,0,2.33.53,2.19,2.11-.38,4.06-.66,8.12-1.14,12.17a2.45,2.45,0,0,1-2,2.32c-3.24.87-6.46,1.79-9.71,2.59A1.71,1.71,0,0,1,66.24,119Z"/><path class="cls-3" d="M66.24,119c3.83-1.06,7.67-2.08,11.47-3.21a1.91,1.91,0,0,0,1.14-1.26c.47-4.21.89-8.43,1.17-12.66,0-.44-.86-1.35-1.35-1.36-4.34-.14-8.7-.12-13-.15V88.8c8.82,0,17.63-.07,26.45,0,.31,0,.93.91.89,1.35-.62,7.62-1.32,15.23-2,22.84-.31,3.5-.55,7-1,10.48A2.37,2.37,0,0,1,88.6,125c-7.23,2.1-14.49,4.09-21.75,6.1a6.25,6.25,0,0,1-1.23.11c0-3.47,0-6.94,0-10.41A6.33,6.33,0,0,1,66.24,119Z"/><path class="cls-3" d="M94.23,75.88a5.18,5.18,0,0,1-1.66.59c-8.49,0-17,0-25.49,0A2.11,2.11,0,0,1,65.68,75a69.59,69.59,0,0,1,0-8.17,2.27,2.27,0,0,1,1.61-1.55c9.28-.1,18.57-.07,27.85-.07Z"/><path class="cls-5" d="M50.51,88.47c-.39-3.72-.78-7.44-1.12-11.16,0-.15.54-.51.83-.51,5.14,0,10.27,0,15.4,0,0,3.4.06,6.81-.06,10.21a2,2,0,0,1-1.37,1.34C59.63,88.5,55.07,88.46,50.51,88.47Z"/></g></g></svg>