<svg xmlns="http://www.w3.org/2000/svg" viewBox="0 0 164.18 163.6"><defs><style>.cls-1{fill:#e6a329;}.cls-2{fill:#f0bf24;}.cls-3{fill:#fff;}</style></defs><g id="Layer_2" data-name="Layer 2"><g id="Layer_1-2" data-name="Layer 1"><rect class="cls-1" x="22.59" width="141.6" height="141.6" rx="14.6"/><rect class="cls-2" y="22" width="141.6" height="141.6" rx="14.6"/><path class="cls-1" d="M70.67,46c14.92,0,29.85,0,44.78,0,1.33,0,1.58.3,1.45,1.65-1.56,16.79-3,33.6-4.53,50.4q-1.86,20.94-3.78,41.87a1.81,1.81,0,0,1-1.11,1.15q-18,5-36,10a4.49,4.49,0,0,1-2.27-.1q-17.71-4.86-35.4-9.84a2.3,2.3,0,0,1-1.33-1.58q-3.93-42.87-7.74-85.75c-.18-2.07-.24-4.16-.56-6.21-.2-1.29.14-1.56,1.4-1.56Q48.13,46.05,70.67,46Z"/><path class="cls-3" d="M49,58.11l21.53.1a2.26,2.26,0,0,1,.54,1.72c0,2.88,0,5.77,0,8.65a2.12,2.12,0,0,1-.56,1.71l0,.11a3.3,3.3,0,0,1-2.23.47,64.87,64.87,0,0,0-6.83.25c-1.12.14-1.65.52-1.77,1.67-.29,2.93-.54,5.87-.8,8.81-.13,1.55-.36,3.09-.37,4.65,0,1.94-.05,2,2,2,2.54,0,5.08,0,7.62,0a2.75,2.75,0,0,1,2.19.54A3.53,3.53,0,0,1,70.78,91c0,2.33,0,4.67,0,7,0,1.28.5,1.73,1.75,1.72,3.33,0,6.66,0,10,0a4.59,4.59,0,0,1,1.85.2c.5.21,1,.5.32,1.1-4.24.25-8.49.09-12.74.08a1.86,1.86,0,0,1-1.4-.57c-8,0-16-.11-24-.1-1.31,0-1.59-.29-1.46-1.65,1.26-13.07,2.43-26.14,3.63-39.21A12.59,12.59,0,0,1,49,58.11Z"/><path class="cls-3" d="M70.9,130.88l-.36.29c-7.44-2.07-14.89-4.1-22.3-6.27a3,3,0,0,1-1.74-2c-.61-5.15-1-10.31-1.45-15.48,0-.37.69-1.13,1.08-1.15q4.66-.14,9.35,0a1.77,1.77,0,0,1,1.25,1.14c.33,2.35.45,4.74.74,7.11a1.62,1.62,0,0,0,.88,1.14c3.84,1.07,7.7,2,11.56,3.06a1.15,1.15,0,0,1,.63.56,23.64,23.64,0,0,1,.22,5.25C70.81,126.64,70.71,128.76,70.9,130.88Z"/><path class="cls-2" d="M70.24,119l-.33-.3a4.9,4.9,0,0,0,.61-1.53c0-5.54,0-11.08,0-16.63,4.4,0,8.81-.06,13.21-.06.31,0,.62.26.92.4A2.48,2.48,0,0,1,85,103c-.36,3.3-.61,6.6-.86,9.91-.21,2.68-.48,3-3.08,3.71-3,.8-5.91,1.63-8.88,2.37C71.55,119.12,70.9,119.46,70.24,119Z"/><path class="cls-3" d="M70.24,119c3.9-1.06,7.8-2.06,11.67-3.22a2.44,2.44,0,0,0,1.45-1.62c.53-4.42.89-8.85,1.31-13.28-.38-.21-.76-.58-1.14-.59-3.85,0-7.69-.09-11.53,0-1.49,0-1.84-.46-1.79-1.86.09-3.21,0-6.43,0-9.65a.2.2,0,0,1,.3-.1c8.47,0,16.95,0,25.41.11.48,0,1.4.9,1.36,1.32q-1.4,16.66-3,33.31a1.66,1.66,0,0,1-.78,1.21c-7.53,2.12-15.08,4.17-22.63,6.23a4.38,4.38,0,0,1-.63-1.5C70.21,125.92,70.24,122.46,70.24,119Z"/><path class="cls-3" d="M70.53,70.29l0-12.08c7.9,0,15.81-.06,23.71,0a1.39,1.39,0,0,1,1,.89q1.11,11.46,2,22.95c0,.32-.61,1-1,1-3.17.08-6.34.1-9.51,0-.45,0-1.19-.84-1.25-1.36-.36-3-.48-6.1-.88-9.14A2.34,2.34,0,0,0,83.13,71C78.94,70.69,74.73,70.52,70.53,70.29Z"/><path class="cls-1" d="M70.54,88.7l-.3.1c-3.75,0-7.49,0-11.23-.11a1.66,1.66,0,0,1-1.1-1.22c.41-5.17.88-10.34,1.45-15.5a2,2,0,0,1,1.39-1.3c3.26-.18,6.54-.2,9.81-.27Q70.54,79.55,70.54,88.7Z"/></g></g></svg>